<svg width="32" height="32" viewBox="0 0 32 32" fill="none" xmlns="http://www.w3.org/2000/svg">
  <defs>
    <linearGradient id="faviconGrad" x1="0%" y1="0%" x2="100%" y2="100%">
      <stop offset="0%" style="stop-color:#4F46E5;stop-opacity:1" />
      <stop offset="100%" style="stop-color:#7C3AED;stop-opacity:1" />
    </linearGradient>
  </defs>
  
  <!-- Background Circle with gradient -->
  <circle cx="16" cy="16" r="16" fill="url(#faviconGrad)"/>
  
  <!-- Shopping Bag Body -->
  <path d="M10 12L8 26H24L22 12H10Z" fill="white" opacity="0.95"/>
  
  <!-- Shopping Bag Top/Opening -->
  <path d="M12 10C12 8.89543 12.8954 8 14 8H18C19.1046 8 20 8.89543 20 10V12H12V10Z" fill="white" opacity="0.95"/>
  
  <!-- Shopping Bag Handle -->
  <path d="M14 10C14 9.44772 14.4477 9 15 9H17C17.5523 9 18 9.44772 18 10V11H14V10Z" fill="#4F46E5" opacity="0.3"/>
  
  <!-- Decorative sparkles -->
  <circle cx="20" cy="6" r="1.5" fill="#FCD34D"/>
  <circle cx="24" cy="8" r="1" fill="#FCD34D"/>
  <circle cx="6" cy="8" r="1" fill="#FCD34D"/>
</svg>

